<svg width="650" height="650" viewBox="0 0 650 650" fill="none" xmlns="http://www.w3.org/2000/svg">
<g clip-path="url(#clip0_101_2)">
<circle cx="325.5" cy="325.5" r="229.5" fill="#111A27"/>
<path fill-rule="evenodd" clip-rule="evenodd" d="M321.901 469C320.547 434.31 339.538 395.957 374.498 370.078C405.136 347.397 440.997 339.51 471 345.938C454.318 332.812 433.379 325 410.644 325C356.164 325 312 369.859 312 425.196C312 440.904 315.558 455.767 321.901 469Z" fill="white"/>
<path fill-rule="evenodd" clip-rule="evenodd" d="M321.901 469C320.547 434.31 339.538 395.957 374.498 370.078C405.136 347.397 440.997 339.51 471 345.938C454.318 332.812 433.379 325 410.644 325C356.164 325 312 369.859 312 425.196C312 440.904 315.558 455.767 321.901 469Z" fill="white"/>
<path fill-rule="evenodd" clip-rule="evenodd" d="M175.816 411.099C173.379 349.645 207.552 281.702 270.459 235.856C325.59 195.677 390.118 181.705 444.105 193.093C414.087 169.84 376.41 156 335.5 156C237.469 156 158 235.469 158 333.5C158 361.326 164.403 387.657 175.816 411.099Z" fill="white"/>
<path fill-rule="evenodd" clip-rule="evenodd" d="M175.816 411.099C173.379 349.645 207.552 281.702 270.459 235.856C325.59 195.677 390.118 181.705 444.105 193.093C414.087 169.84 376.41 156 335.5 156C237.469 156 158 235.469 158 333.5C158 361.326 164.403 387.657 175.816 411.099Z" fill="white"/>
<path fill-rule="evenodd" clip-rule="evenodd" d="M248.499 453.496C244.581 399.868 273.954 339.68 329.302 299.425C374.143 266.813 426.243 254.404 470.974 261.58C446.522 244.813 416.908 235 384.999 235C301.052 235 233 302.912 233 386.686C233 410.662 238.574 433.338 248.499 453.496Z" fill="white"/>
<path fill-rule="evenodd" clip-rule="evenodd" d="M248.499 453.496C244.581 399.868 273.954 339.68 329.302 299.425C374.143 266.813 426.243 254.404 470.974 261.58C446.522 244.813 416.908 235 384.999 235C301.052 235 233 302.912 233 386.686C233 410.662 238.574 433.338 248.499 453.496Z" fill="white"/>
<path d="M516.066 558.482L283.406 522.452L531.367 323.546L516.066 558.482Z" fill="#111A27"/>
<ellipse cx="426" cy="432.5" rx="35" ry="35.5" fill="white"/>
</g>
<defs>
<clipPath id="clip0_101_2">
<rect width="650" height="650" fill="white"/>
</clipPath>
</defs>
</svg>
